####
#
# OBJ File Generated by Meshlab
#
####
# Object board002_m.obj
#
# Vertices: 24
# Faces: 44
#
####
mtllib ./board002_m.obj.mtl

vn 0.301512 0.904534 -0.301511
v -0.280000 0.008750 0.430000
vn -0.301511 0.904534 -0.301512
v 0.280000 0.008750 0.430000
vn -0.577351 0.577350 -0.577350
v 0.280000 0.001750 0.430000
vn 0.577350 0.577350 -0.577351
v -0.280000 0.001750 0.430000
vn -0.301512 0.904534 0.301511
v 0.280000 0.008750 -0.430000
vn -0.577350 0.577350 0.577351
v 0.280000 0.001750 -0.430000
vn 0.301511 0.904534 0.301512
v -0.280000 0.008750 -0.430000
vn 0.577351 0.577350 0.577350
v -0.280000 0.001750 -0.430000
vn 0.577351 -0.577350 -0.577350
v -0.280000 -0.001750 0.430000
vn 0.577350 -0.577350 0.577351
v -0.280000 -0.001750 -0.430000
vn -0.577351 -0.577350 0.577350
v 0.280000 -0.001750 -0.430000
vn -0.577350 -0.577350 -0.577351
v 0.280000 -0.001750 0.430000
vn -0.301511 -0.904534 0.301512
v 0.280000 -0.008750 -0.430000
vn -0.301512 -0.904534 -0.301511
v 0.280000 -0.008750 0.430000
vn 0.301512 -0.904534 0.301511
v -0.280000 -0.008750 -0.430000
vn 0.301511 -0.904534 -0.301512
v -0.280000 -0.008750 0.430000
vn 0.577351 0.577350 -0.577350
v 0.300000 0.008750 -0.450000
vn 0.577350 0.577351 0.577351
v 0.300000 0.008750 0.450000
vn 0.577351 -0.577350 0.577350
v 0.300000 -0.008750 0.450000
vn 0.577350 -0.577351 -0.577351
v 0.300000 -0.008750 -0.450000
vn -0.577350 0.577351 -0.577350
v -0.300000 0.008750 -0.450000
vn -0.577350 -0.577350 -0.577350
v -0.300000 -0.008750 -0.450000
vn -0.577350 0.577350 0.577350
v -0.300000 0.008750 0.450000
vn -0.577350 -0.577351 0.577350
v -0.300000 -0.008750 0.450000
# 24 vertices, 0 vertices normals


usemtl material_0
vt -56.000000 0.000000
vt 0.000000 0.000000
vt -56.000000 0.700000
f 1/1/1 2/2/2 4/3/4
vt 0.000000 0.700000
f 4/3/4 2/2/2 3/4/3
vt -86.000000 0.000000
vt -86.000000 0.700000
f 2/5/2 5/2/5 3/6/3
f 3/6/3 5/2/5 6/4/6
f 5/1/5 7/2/7 6/3/6
f 6/3/6 7/2/7 8/4/8
f 7/5/7 1/2/1 8/6/8
f 8/6/8 1/2/1 4/4/4
vt -43.000000 -28.000000
vt 43.000000 -28.000000
vt -43.000000 28.000000
f 8/7/8 4/8/4 6/9/6
vt 43.000000 28.000000
f 6/9/6 4/8/4 3/10/3
f 9/7/9 10/8/10 12/9/12
f 12/9/12 10/8/10 11/10/11
vt 0.000000 1.050000
vt 86.000000 1.050000
vt 0.000000 1.750000
f 12/11/12 11/12/11 14/13/14
vt 86.000000 1.750000
f 14/13/14 11/12/11 13/14/13
vt 56.000000 1.050000
f 11/11/11 10/15/10 13/13/13
vt 56.000000 1.750000
f 13/13/13 10/15/10 15/16/15
f 9/11/9 12/15/12 16/13/16
f 16/13/16 12/15/12 14/16/14
f 10/11/10 9/12/9 15/13/15
f 15/13/15 9/12/9 16/14/16
vt 90.000000 0.000000
f 17/2/17 18/17/18 20/13/20
vt 90.000000 1.750000
f 20/13/20 18/17/18 19/18/19
vt 60.000000 0.000000
f 21/2/21 17/19/17 22/13/22
vt 60.000000 1.750000
f 22/13/22 17/19/17 20/20/20
f 23/2/23 21/17/21 24/13/24
f 24/13/24 21/17/21 22/18/22
f 18/2/18 23/19/23 19/13/19
f 19/13/19 23/19/23 24/20/24
vt 45.000000 -30.000000
f 13/10/13 15/8/15 22/21/22
f 22/21/22 15/8/15 16/7/16
vt -45.000000 -30.000000
f 22/21/22 16/7/16 24/22/24
f 24/22/24 16/7/16 14/9/14
vt -45.000000 30.000000
f 24/22/24 14/9/14 19/23/19
f 19/23/19 14/9/14 13/10/13
vt 45.000000 30.000000
f 19/23/19 13/10/13 20/24/20
f 20/24/20 13/10/13 22/21/22
f 1/8/1 23/21/23 2/10/2
f 2/10/2 23/21/23 18/24/18
f 2/10/2 18/24/18 17/23/17
f 1/8/1 7/7/7 23/21/23
f 23/21/23 7/7/7 21/22/21
f 21/22/21 7/7/7 5/9/5
f 21/22/21 5/9/5 17/23/17
f 17/23/17 5/9/5 2/10/2
# 44 faces, 24 coords texture

# End of File
