# https://github.com/mikedh/trimesh
v 0.30987400 -0.00606900 0.43399999
v 0.31000000 -0.00550000 0.43399999
v 0.30894974 -0.00175000 0.43874249
v 0.30829376 -0.00812875 0.43399999
v 0.30700001 -0.00850000 0.00000000
v 0.30829325 -0.00812875 -0.43399999
v 0.30987400 -0.00606900 -0.43399999
v 0.30894974 -0.00425000 -0.43874249
v 0.31000000 -0.00550000 -0.43399999
v 0.28500000 -0.00812875 -0.45729324
v 0.28500000 -0.00850000 -0.45600000
v 0.28500000 -0.00606900 -0.45887399
v 0.28500000 -0.00550000 -0.45899999
v 0.29448500 -0.00300000 -0.45689949
v -0.28500000 -0.00812875 -0.45729324
v -0.28500000 -0.00850000 -0.45600000
v -0.28500000 -0.00606900 -0.45887399
v -0.28500000 -0.00550000 -0.45899999
v -0.30829325 -0.00812875 -0.43399999
v -0.30700001 -0.00850000 0.00000000
v -0.30987400 -0.00606900 -0.43399999
v -0.30894974 -0.00175000 -0.43874249
v -0.31000000 -0.00550000 -0.43399999
v -0.30789950 -0.00550000 -0.44348499
v -0.29448500 -0.00300000 -0.45689949
v -0.30829325 -0.00812875 0.43399999
v -0.30987400 -0.00606900 0.43399999
v -0.31000000 -0.00550000 0.43399999
v -0.30894974 -0.00425000 0.43874249
v -0.28500000 -0.00850000 0.45600000
v -0.28500000 -0.00812875 0.45729324
v -0.28500000 -0.00606900 0.45887399
v -0.28500000 -0.00550000 0.45899999
v -0.29448500 -0.00300000 0.45689949
v 0.28500000 -0.00850000 0.45600000
v 0.28500000 -0.00812875 0.45729324
v 0.28500000 -0.00606900 0.45887399
v 0.28500000 -0.00550000 0.45899999
v 0.30789950 -0.00550000 0.44348499
v 0.29448551 -0.00300000 0.45689949
v -0.28500000 -0.00050000 0.45899999
v -0.28500000 0.00006900 0.45887399
v -0.30789950 -0.00050000 0.44348499
v -0.30987400 0.00006900 0.43399999
v -0.31000000 -0.00050000 0.43399999
v 0.28500000 -0.00050000 0.45899999
v 0.28500000 0.00006900 0.45887399
v 0.30987400 0.00006900 0.43399999
v 0.31000000 -0.00050000 0.43399999
v 0.31000000 -0.00050000 -0.43399999
v 0.30987400 0.00006900 -0.43399999
v -0.30700001 0.00250000 0.00000000
v -0.30829325 0.00212875 -0.43399999
v -0.30987400 0.00006900 -0.43399999
v -0.31000000 -0.00050000 -0.43399999
v -0.30829325 0.00212875 0.43399999
v -0.28500000 0.00212875 0.45729324
v 0.00000000 0.00250000 0.45600000
v 0.28500000 0.00212875 0.45729324
v 0.30829376 0.00212875 0.43399999
v 0.30700001 0.00250000 0.00000000
v 0.30829325 0.00212875 -0.43399999
v 0.28500000 -0.00050000 -0.45899999
v 0.28500000 0.00006900 -0.45887399
v 0.28500000 0.00212875 -0.45729324
v 0.00000000 0.00250000 -0.45600000
v 0.30789950 -0.00050000 -0.44348499
v -0.28500000 -0.00050000 -0.45899999
v -0.28500000 0.00006900 -0.45887399
v -0.28500000 0.00212875 -0.45729324
v 0.31000000 0.00250000 0.43399999
v 0.30399999 0.00250000 0.43399999
v 0.30399999 0.00250000 -0.43399999
v 0.31000000 0.00250000 -0.43399999
v 0.30399999 0.00850000 0.43399999
v 0.30399999 0.00850000 -0.43399999
v 0.31000000 0.00850000 0.43399999
v 0.31000000 0.00850000 -0.43399999
f 7 1 6
f 6 1 4
f 10 15 12
f 12 15 17
f 19 26 21
f 21 26 27
f 31 36 32
f 32 36 37
f 43 29 34
f 33 38 41
f 41 38 46
f 40 39 3
f 2 9 49
f 49 9 50
f 5 35 11
f 11 35 16
f 16 35 30
f 16 30 20
f 56 53 44
f 44 53 54
f 42 47 57
f 57 47 59
f 48 51 60
f 60 51 62
f 64 69 65
f 65 69 70
f 23 28 55
f 55 28 45
f 52 58 66
f 66 58 61
f 67 8 14
f 25 24 22
f 13 18 63
f 63 18 68
f 73 72 76
f 76 72 75
f 71 74 77
f 77 74 78

