####
#
# OBJ File Generated by Meshlab
#
####
# Object board007_m.obj
#
# Vertices: 8
# Faces: 12
#
####
mtllib ./board007_m.obj.mtl

vn 0.577350 0.577350 -0.577350
v 0.199000 0.007500 -0.500000
vn 0.577350 0.577350 0.577350
v 0.199000 0.007500 0.500000
vn 0.577350 -0.577350 0.577350
v 0.199000 -0.007500 0.500000
vn 0.577350 -0.577350 -0.577350
v 0.199000 -0.007500 -0.500000
vn -0.577350 0.577350 -0.577350
v -0.199000 0.007500 -0.500000
vn -0.577350 -0.577350 -0.577350
v -0.199000 -0.007500 -0.500000
vn -0.577350 0.577350 0.577350
v -0.199000 0.007500 0.500000
vn -0.577350 -0.577350 0.577350
v -0.199000 -0.007500 0.500000
# 8 vertices, 0 vertices normals


usemtl material_0
vt 0.000000 0.000000
vt 100.000000 0.000000
vt 0.000000 1.500000
f 1/1/1 2/2/2 4/3/4
vt 100.000000 1.500000
f 4/3/4 2/2/2 3/4/3
vt 39.799999 0.000000
f 5/1/5 1/5/1 6/3/6
vt 39.799999 1.500000
f 6/3/6 1/5/1 4/6/4
f 7/1/7 5/2/5 8/3/8
f 8/3/8 5/2/5 6/4/6
f 2/1/2 7/5/7 3/3/3
f 3/3/3 7/5/7 8/6/8
vt -50.000000 -19.900000
vt 50.000000 -19.900000
vt -50.000000 19.900000
f 8/7/8 6/8/6 3/9/3
vt 50.000000 19.900000
f 3/9/3 6/8/6 4/10/4
f 2/10/2 1/9/1 7/8/7
f 7/8/7 1/9/1 5/7/5
# 12 faces, 10 coords texture

# End of File
