####
#
# OBJ File Generated by Meshlab
#
####
# Object board5_m.obj
#
# Vertices: 24
# Faces: 44
#
####
mtllib ./board5_m.obj.mtl

vn 0.301511 0.904534 -0.301511
v -0.230000 0.008500 0.331000
vn -0.301511 0.904534 -0.301511
v 0.230000 0.008500 0.331000
vn -0.577349 0.577351 -0.577351
v 0.230000 0.001500 0.331000
vn 0.577350 0.577350 -0.577350
v -0.230000 0.001500 0.331000
vn -0.301511 0.904534 0.301511
v 0.230000 0.008500 -0.330000
vn -0.577350 0.577350 0.577350
v 0.230000 0.001500 -0.330000
vn 0.301511 0.904534 0.301511
v -0.230000 0.008500 -0.330000
vn 0.577349 0.577351 0.577351
v -0.230000 0.001500 -0.330000
vn 0.577349 -0.577351 -0.577351
v -0.230000 -0.001500 0.331000
vn 0.577350 -0.577350 0.577350
v -0.230000 -0.001500 -0.330000
vn -0.577349 -0.577351 0.577351
v 0.230000 -0.001500 -0.330000
vn -0.577350 -0.577350 -0.577350
v 0.230000 -0.001500 0.331000
vn -0.301511 -0.904534 0.301511
v 0.230000 -0.008500 -0.330000
vn -0.301511 -0.904534 -0.301511
v 0.230000 -0.008500 0.331000
vn 0.301511 -0.904534 0.301511
v -0.230000 -0.008500 -0.330000
vn 0.301511 -0.904534 -0.301511
v -0.230000 -0.008500 0.331000
vn 0.577350 0.577350 -0.577350
v 0.250000 0.008500 -0.350000
vn 0.577351 0.577350 0.577350
v 0.250000 0.008500 0.350000
vn 0.577350 -0.577350 0.577350
v 0.250000 -0.008500 0.350000
vn 0.577351 -0.577350 -0.577350
v 0.250000 -0.008500 -0.350000
vn -0.577351 0.577350 -0.577350
v -0.250000 0.008500 -0.350000
vn -0.577350 -0.577350 -0.577350
v -0.250000 -0.008500 -0.350000
vn -0.577350 0.577350 0.577350
v -0.250000 0.008500 0.350000
vn -0.577351 -0.577350 0.577350
v -0.250000 -0.008500 0.350000
# 24 vertices, 0 vertices normals


usemtl material_0
vt -46.000000 0.000000
vt 0.000000 0.000000
vt -46.000000 0.700000
f 1/1/1 2/2/2 4/3/4
vt 0.000000 0.700000
f 4/3/4 2/2/2 3/4/3
vt -66.099998 0.000000
vt -66.099998 0.700000
f 2/5/2 5/2/5 3/6/3
f 3/6/3 5/2/5 6/4/6
f 5/1/5 7/2/7 6/3/6
f 6/3/6 7/2/7 8/4/8
f 7/5/7 1/2/1 8/6/8
f 8/6/8 1/2/1 4/4/4
vt -33.049999 -23.000000
vt 33.049999 -23.000000
vt -33.049999 23.000000
f 8/7/8 4/8/4 6/9/6
vt 33.049999 23.000000
f 6/9/6 4/8/4 3/10/3
f 9/7/9 10/8/10 12/9/12
f 12/9/12 10/8/10 11/10/11
vt 0.000000 1.000000
vt 66.099998 1.000000
vt 0.000000 1.700000
f 12/11/12 11/12/11 14/13/14
vt 66.099998 1.700000
f 14/13/14 11/12/11 13/14/13
vt 46.000000 1.000000
f 11/11/11 10/15/10 13/13/13
vt 46.000000 1.700000
f 13/13/13 10/15/10 15/16/15
f 9/11/9 12/15/12 16/13/16
f 16/13/16 12/15/12 14/16/14
f 10/11/10 9/12/9 15/13/15
f 15/13/15 9/12/9 16/14/16
vt 70.000000 0.000000
f 17/2/17 18/17/18 20/13/20
vt 70.000000 1.700000
f 20/13/20 18/17/18 19/18/19
vt 50.000000 0.000000
f 21/2/21 17/19/17 22/13/22
vt 50.000000 1.700000
f 22/13/22 17/19/17 20/20/20
f 23/2/23 21/17/21 24/13/24
f 24/13/24 21/17/21 22/18/22
f 18/2/18 23/19/23 19/13/19
f 19/13/19 23/19/23 24/20/24
vt -33.099998 -23.000000
vt -35.000000 -25.000000
vt 33.000000 -23.000000
f 16/21/16 24/22/24 15/23/15
vt 35.000000 -25.000000
f 15/23/15 24/22/24 22/24/22
vt 33.000000 23.000000
f 15/23/15 22/24/22 13/25/13
vt 35.000000 25.000000
f 13/25/13 22/24/22 20/26/20
vt -35.000000 25.000000
f 13/25/13 20/26/20 19/27/19
vt -33.099998 23.000000
f 16/21/16 14/28/14 24/22/24
f 24/22/24 14/28/14 19/27/19
f 19/27/19 14/28/14 13/25/13
vt 33.099998 -23.000000
vt 33.099998 23.000000
f 1/29/1 23/24/23 2/30/2
f 2/30/2 23/24/23 18/26/18
vt -33.000000 23.000000
f 2/30/2 18/26/18 5/31/5
f 5/31/5 18/26/18 17/27/17
f 5/31/5 17/27/17 21/22/21
vt -33.000000 -23.000000
f 1/29/1 7/32/7 23/24/23
f 23/24/23 7/32/7 21/22/21
f 21/22/21 7/32/7 5/31/5
# 44 faces, 32 coords texture

# End of File
